<svg xmlns="http://www.w3.org/2000/svg" xmlns:xlink="http://www.w3.org/1999/xlink" width="92.312" height="67.039" viewBox="0 0 92.312 67.039"><defs><linearGradient id="a" x1="0.5" x2="0.598" y2="1.792" gradientUnits="objectBoundingBox"><stop offset="0" stop-color="#25aae1"/><stop offset="1" stop-color="#25d3e1"/></linearGradient></defs><path d="M47.224-150.926a45.192,45.192,0,0,0-9.789,3.916,39.08,39.08,0,0,0-7.95,5.636,26.453,26.453,0,0,0-5.339,6.763,15.2,15.2,0,0,0-1.958,7.3,21.619,21.619,0,0,0,.119,2.373q.119,1.068.356,1.068a4.739,4.739,0,0,0,2.136-.534q1.068-.534,2.254-1.246a15.155,15.155,0,0,1,2.67-1.246,9.948,9.948,0,0,1,3.382-.534,12.649,12.649,0,0,1,5.4,1.187,14.625,14.625,0,0,1,4.509,3.263A15.157,15.157,0,0,1,46.1-118a17.755,17.755,0,0,1,1.127,6.467,14.757,14.757,0,0,1-1.483,6.585,18.106,18.106,0,0,1-3.975,5.339,17.978,17.978,0,0,1-5.933,3.619,20.568,20.568,0,0,1-7.356,1.305,19.626,19.626,0,0,1-8.9-2.076,23.174,23.174,0,0,1-7.3-5.755,27.457,27.457,0,0,1-4.924-8.6,30.655,30.655,0,0,1-1.78-10.5A36.02,36.02,0,0,1,8.9-137.043a39.539,39.539,0,0,1,9.018-12.4,45.4,45.4,0,0,1,13.23-8.484,49.559,49.559,0,0,1,16.077-3.8Zm-50.546,0a45.192,45.192,0,0,0-9.789,3.916,39.08,39.08,0,0,0-7.95,5.636,26.453,26.453,0,0,0-5.339,6.763,15.2,15.2,0,0,0-1.958,7.3,14.5,14.5,0,0,0,.178,2.373q.178,1.068.534,1.068a4.175,4.175,0,0,0,1.958-.534q1.009-.534,2.2-1.246a15.155,15.155,0,0,1,2.67-1.246,9.571,9.571,0,0,1,3.263-.534,12.92,12.92,0,0,1,5.517,1.187,14.625,14.625,0,0,1,4.509,3.263A15.157,15.157,0,0,1-4.449-118a17.755,17.755,0,0,1,1.127,6.467,15.27,15.27,0,0,1-1.424,6.585,16.831,16.831,0,0,1-3.975,5.339,18.673,18.673,0,0,1-5.992,3.619,20.568,20.568,0,0,1-7.356,1.305,19.994,19.994,0,0,1-8.958-2.076,22.323,22.323,0,0,1-7.3-5.755,29.09,29.09,0,0,1-4.924-8.6,29.766,29.766,0,0,1-1.839-10.5,35.488,35.488,0,0,1,3.382-15.425,40.346,40.346,0,0,1,9.077-12.4,45.177,45.177,0,0,1,13.289-8.484,49.944,49.944,0,0,1,16.018-3.8Z" transform="translate(45.088 161.723)" fill="url(#a)"/></svg>